<svg width="390" height="560" viewBox="0 0 390 560" fill="none" xmlns="http://www.w3.org/2000/svg">
<path d="M389.897 196.093C389.897 88.2907 302.162 0.560059 194.364 0.560059C-50.8762 8.49233 -69.9962 353.827 171.03 389.987V559.853H217.697V389.987C314.53 378.32 389.897 295.956 389.897 196.08V196.093ZM194.364 344.96C112.228 344.96 45.4971 278.225 45.4971 196.093C52.9659 -1.07994 335.764 -1.07994 343.23 196.093C343.23 278.229 276.496 344.96 194.364 344.96Z" fill="black"/>
<circle cx="195" cy="193" r="156" fill="white"/>
<path d="M195.298 54L193.435 60.3326V244.091L195.298 245.951L280.596 195.531L195.298 54Z" fill="#343434"/>
<path d="M195.298 54L110 195.531L195.298 245.951V156.76V54Z" fill="#8C8C8C"/>
<path d="M195.298 262.101L194.248 263.381V328.84L195.298 331.907L280.647 211.707L195.298 262.101Z" fill="#3C3C3B"/>
<path d="M195.298 331.906V262.1L110 211.706L195.298 331.906Z" fill="#8C8C8C"/>
<path d="M195.298 245.95L280.595 195.531L195.298 156.761V245.95Z" fill="#141414"/>
<path d="M110.001 195.531L195.298 245.95V156.761L110.001 195.531Z" fill="#393939"/>
</svg>
