<?xml version="1.0" standalone="no"?>
<!DOCTYPE svg PUBLIC "-//W3C//DTD SVG 20010904//EN"
 "http://www.w3.org/TR/2001/REC-SVG-20010904/DTD/svg10.dtd">
<svg version="1.0" xmlns="http://www.w3.org/2000/svg"
 width="700.000000pt" height="700.000000pt" viewBox="0 0 700.000000 700.000000"
 preserveAspectRatio="xMidYMid meet">
<metadata>
Created by potrace 1.14, written by Peter Selinger 2001-2017
</metadata>
<g transform="translate(0.000000,700.000000) scale(0.100000,-0.100000)"
fill="#000000" stroke="none">
<path d="M322 4483 c-36 -17 -62 -58 -62 -96 0 -23 57 -194 302 -902 55 -159
108 -315 118 -345 70 -212 193 -558 205 -577 35 -53 41 -54 499 -51 414 3 425
4 453 24 23 17 38 50 79 172 l52 151 26 -77 c66 -191 81 -225 109 -246 28 -20
40 -21 440 -24 425 -3 467 0 501 37 10 10 39 84 66 162 74 219 185 545 325
954 70 204 141 412 158 463 l32 93 5 -818 c3 -450 9 -825 13 -833 4 -8 20 -24
35 -35 26 -19 45 -20 462 -23 399 -2 438 -1 470 15 68 34 64 -17 65 978 0 997
4 943 -65 978 -32 16 -74 17 -459 17 -365 -1 -429 -3 -458 -17 -18 -8 -33 -19
-33 -24 0 -5 -14 1 -31 13 -31 23 -32 23 -442 26 -227 2 -431 0 -454 -3 -64
-9 -88 -41 -130 -172 -20 -63 -39 -110 -43 -106 -4 4 -21 54 -39 109 -34 111
-55 145 -99 163 -20 9 -148 11 -468 9 -421 -3 -440 -4 -466 -23 -31 -23 -46
-55 -84 -177 -16 -48 -30 -85 -33 -82 -4 3 -24 58 -46 122 -59 172 -8 157
-533 159 -389 3 -441 1 -470 -14z m882 -83 c2 -3 41 -117 86 -254 l82 -249 34
104 c19 57 55 168 80 246 29 91 51 146 62 151 13 6 774 9 839 3 6 -1 46 -108
89 -238 43 -131 81 -242 85 -246 3 -5 41 99 84 230 42 131 81 242 86 247 10
11 834 14 845 3 3 -3 -29 -109 -71 -234 -43 -125 -104 -304 -136 -398 -31 -93
-111 -327 -177 -520 -66 -192 -141 -413 -167 -490 -27 -77 -50 -142 -52 -145
-5 -6 -803 -6 -813 0 -4 3 -40 100 -79 215 -92 267 -103 298 -111 307 -3 4
-18 -27 -32 -70 -15 -42 -54 -158 -88 -256 -33 -99 -65 -185 -69 -190 -6 -8
-137 -11 -408 -10 -219 1 -401 2 -404 3 -4 1 -22 47 -42 104 -35 102 -160 464
-349 1012 -207 602 -228 666 -215 670 7 2 18 5 24 7 20 5 812 3 817 -2z m3364
-4 c18 -11 18 -1782 0 -1788 -22 -7 -823 -2 -834 5 -17 10 -15 1776 2 1785 17
9 816 8 832 -2z"/>
<path d="M4784 4485 c-16 -9 -38 -30 -49 -47 -17 -30 -18 -73 -19 -927 -1
-1000 -4 -950 67 -984 32 -16 79 -17 430 -17 373 1 395 2 426 21 51 31 59 64
57 237 -1 83 -1 152 0 152 6 0 112 -48 309 -140 121 -56 249 -116 285 -133 36
-16 112 -52 170 -79 125 -59 156 -66 202 -44 72 35 68 -30 68 981 0 986 3 938
-54 976 -30 20 -805 24 -852 4 -61 -25 -69 -50 -70 -224 -1 -86 -3 -159 -3
-162 -1 -6 -187 77 -516 230 -378 176 -398 183 -451 156z m1838 -88 c13 -4 15
-128 14 -889 -1 -485 -5 -888 -9 -895 -9 -14 -14 -13 -157 55 -139 65 -384
179 -585 272 -33 15 -104 49 -158 74 -55 26 -105 45 -112 43 -9 -4 -12 -57
-12 -222 -1 -119 -3 -219 -7 -222 -9 -10 -748 -10 -769 -1 -16 8 -17 58 -15
896 3 1030 -14 920 138 849 52 -25 205 -95 340 -157 332 -153 352 -162 454
-209 49 -22 93 -41 97 -41 5 0 9 101 9 224 l0 225 28 3 c47 5 729 1 744 -5z"/>
</g>
</svg>
