<svg id="jCNY-16px-01" xmlns="http://www.w3.org/2000/svg" xmlns:xlink="http://www.w3.org/1999/xlink" width="24" height="24" viewBox="0 0 24 24">
  <defs>
    <clipPath id="clip-path">
      <circle id="Ellipse_285" data-name="Ellipse 285" cx="10.02" cy="10.02" r="10.02" fill="none"/>
    </clipPath>
  </defs>
  <circle id="Ellipse_283" data-name="Ellipse 283" cx="12" cy="12" r="12" fill="#fff"/>
  <path id="Path_7098" data-name="Path 7098" d="M12,1a10.965,10.965,0,1,0,7.785,3.21A10.965,10.965,0,0,0,12,1M12,0A12,12,0,1,1,0,12,12,12,0,0,1,12,0Z" fill="#ee1c25"/>
  <circle id="Ellipse_284" data-name="Ellipse 284" cx="10.02" cy="10.02" r="10.02" transform="translate(1.98 1.98)" fill="#ee1c25"/>
  <g id="Group_4600" data-name="Group 4600" transform="translate(1.98 1.98)" clip-path="url(#clip-path)">
    <rect id="Rectangle_894" data-name="Rectangle 894" width="33.09" height="22.065" transform="translate(-0.66 2.325)" fill="#ee1c25"/>
    <path id="Path_7099" data-name="Path 7099" d="M5.61,4.34l1.95,6L2.46,6.62h6.3l-5.1,3.7Z" transform="translate(-0.75 0.19)" fill="#ff0"/>
    <path id="Path_7100" data-name="Path 7100" d="M8.96,3.66l-.18,2.1L7.7,3.96l1.98.81-2.04.48Z" transform="translate(1.84 -0.15)" fill="#ff0"/>
    <path id="Path_7101" data-name="Path 7101" d="M10.845,5.375,9.87,7.22l-.3-2.07,1.5,1.5L9,6.29Z" transform="translate(2.52 0.595)" fill="#ff0"/>
    <path id="Path_7102" data-name="Path 7102" d="M11.1,8,9.45,9.3l.57-2.025.72,1.965L9,8.075Z" transform="translate(2.52 1.66)" fill="#ff0"/>
    <path id="Path_7103" data-name="Path 7103" d="M8.925,8.8l-.1,2.1L7.665,9.1l2.01.78-2.025.555Z" transform="translate(1.845 2.42)" fill="#ff0"/>
  </g>
</svg>
