<?xml version="1.0" encoding="UTF-8" standalone="no"?>
<!DOCTYPE svg PUBLIC "-//W3C//DTD SVG 1.1//EN" "http://www.w3.org/Graphics/SVG/1.1/DTD/svg11.dtd">
<svg width="100%" height="100%" viewBox="0 0 145 145" version="1.1" xmlns="http://www.w3.org/2000/svg" xmlns:xlink="http://www.w3.org/1999/xlink" xml:space="preserve" xmlns:serif="http://www.serif.com/" style="fill-rule:evenodd;clip-rule:evenodd;stroke-linecap:round;stroke-linejoin:round;stroke-miterlimit:1.5;">
    <g transform="matrix(0.145,0,0,0.145,0,0)">
        <g transform="matrix(0.989235,0,0,0.989235,2.33767,12.5933)">
            <circle cx="503.078" cy="492.711" r="487.625" style="fill:white;stroke:rgb(52,42,146);stroke-width:37.4px;"/>
        </g>
        <g>
            <g transform="matrix(0.967302,0,0,0.967302,17.1739,26.1665)">
                <circle cx="494.341" cy="483.134" r="347.393" style="fill:white;stroke:black;stroke-width:17.57px;"/>
            </g>
            <path d="M108.037,601.015C108.037,601.015 104.041,570.563 101.818,558.352C100.509,551.159 81.564,526.167 73.91,517.176C62.471,503.74 57.044,496.824 57.044,496.824C57.044,496.824 56.567,504.884 57.835,521.907C59.401,542.941 62.584,559.162 70.386,568.094C80.815,580.035 108.037,601.015 108.037,601.015Z" style="fill:rgb(0,170,81);stroke:black;stroke-width:4px;"/>
            <g transform="matrix(-0.999277,-0.0380193,-0.0380193,0.999277,1019.23,18.6061)">
                <path d="M108.037,601.015C108.037,601.015 104.041,570.563 101.818,558.352C100.509,551.159 81.564,526.167 73.91,517.176C62.471,503.74 57.044,496.824 57.044,496.824C57.044,496.824 56.567,504.884 57.835,521.907C59.401,542.941 62.584,559.162 70.386,568.094C80.815,580.035 108.037,601.015 108.037,601.015Z" style="fill:rgb(0,170,81);stroke:black;stroke-width:4px;"/>
            </g>
            <g transform="matrix(0.98195,0.189142,-0.189142,0.98195,102.343,-91.8654)">
                <path d="M108.037,601.015C108.037,601.015 99.935,550.943 97.712,538.731C96.403,531.538 85.783,522.369 78.128,513.379C66.689,499.943 55.916,492.664 55.916,492.664C55.916,492.664 57.252,505.029 62.27,529.437C66.938,552.136 67.763,569.905 75.564,578.837C85.994,590.778 108.037,601.015 108.037,601.015Z" style="fill:rgb(0,170,81);stroke:black;stroke-width:4px;"/>
            </g>
            <g transform="matrix(-0.988431,0.151672,0.151672,0.988431,920.451,-77.0839)">
                <path d="M108.037,601.015C108.037,601.015 99.935,550.943 97.712,538.731C96.403,531.538 85.783,522.369 78.128,513.379C66.689,499.943 55.916,492.664 55.916,492.664C55.916,492.664 57.252,505.029 62.27,529.437C66.938,552.136 67.763,569.905 75.564,578.837C85.994,590.778 108.037,601.015 108.037,601.015Z" style="fill:rgb(0,170,81);stroke:black;stroke-width:4px;"/>
            </g>
            <g transform="matrix(0.918372,0.395718,-0.395718,0.918372,237.624,-163.082)">
                <path d="M108.037,601.015C108.037,601.015 99.192,551.657 96.969,539.446C95.659,532.253 85.783,522.369 78.128,513.379C66.689,499.943 55.916,492.664 55.916,492.664C55.916,492.664 57.252,505.029 62.27,529.437C66.938,552.136 67.763,569.905 75.564,578.837C85.994,590.778 108.037,601.015 108.037,601.015Z" style="fill:rgb(0,170,81);stroke:black;stroke-width:4px;"/>
            </g>
            <g transform="matrix(-0.932753,0.360516,0.360516,0.932753,787.975,-153.392)">
                <path d="M108.037,601.015C108.037,601.015 99.192,551.657 96.969,539.446C95.659,532.253 85.783,522.369 78.128,513.379C66.689,499.943 55.916,492.664 55.916,492.664C55.916,492.664 57.252,505.029 62.27,529.437C66.938,552.136 67.763,569.905 75.564,578.837C85.994,590.778 108.037,601.015 108.037,601.015Z" style="fill:rgb(0,170,81);stroke:black;stroke-width:4px;"/>
            </g>
            <g transform="matrix(0.760069,0.649842,-0.649842,0.760069,430.89,-186.343)">
                <path d="M106.901,602.829C106.901,602.829 99.184,558.126 96.961,545.914C95.651,538.721 85.326,526.899 77.082,518.445C62.816,503.816 54.959,496.051 54.959,496.051C54.959,496.051 55.492,504.847 58.64,527.725C61.8,550.682 61.9,559.668 69.701,568.6C80.131,580.541 106.901,602.829 106.901,602.829Z" style="fill:rgb(0,170,81);stroke:black;stroke-width:4px;"/>
            </g>
            <g transform="matrix(-0.784226,0.620475,0.620475,0.784226,595.733,-183.984)">
                <path d="M106.901,602.829C106.901,602.829 99.184,558.126 96.961,545.914C95.651,538.721 85.326,526.899 77.082,518.445C62.816,503.816 54.959,496.051 54.959,496.051C54.959,496.051 55.492,504.847 58.64,527.725C61.8,550.682 61.9,559.668 69.701,568.6C80.131,580.541 106.901,602.829 106.901,602.829Z" style="fill:rgb(0,170,81);stroke:black;stroke-width:4px;"/>
            </g>
            <g transform="matrix(0.688635,0.725108,-0.725108,0.688635,532.176,-222.497)">
                <path d="M106.901,602.829C106.901,602.829 100.982,565.368 98.822,553.145C97.042,543.071 96.732,538.742 79.505,522.023C64.84,507.792 55.325,498.478 55.325,498.478C55.325,498.478 55.592,507.796 58.08,530.755C60.15,549.857 68.356,564.344 77.452,575.07C87.706,587.162 106.901,602.829 106.901,602.829Z" style="fill:rgb(0,170,81);stroke:black;stroke-width:4px;"/>
            </g>
            <g transform="matrix(-0.715705,0.698403,0.698403,0.715705,495.895,-223.963)">
                <path d="M106.901,602.829C106.901,602.829 100.982,565.368 98.822,553.145C97.042,543.071 96.732,538.742 79.505,522.023C64.84,507.792 55.325,498.478 55.325,498.478C55.325,498.478 55.592,507.796 58.08,530.755C60.15,549.857 68.356,564.344 77.452,575.07C87.706,587.162 106.901,602.829 106.901,602.829Z" style="fill:rgb(0,170,81);stroke:black;stroke-width:4px;"/>
            </g>
            <g transform="matrix(0.507625,0.861578,-0.861578,0.507625,684.44,-192.139)">
                <path d="M105.666,595.68C105.666,595.68 107.055,583.502 103.643,566.93C100.896,553.582 98.385,538.361 81.452,522.621C66.485,508.709 57.275,501.826 57.275,501.826C57.275,501.826 59.687,514.756 62.388,540.49C64.395,559.599 69.312,574.451 81.1,581.943C95.964,591.388 105.666,595.68 105.666,595.68Z" style="fill:rgb(0,170,81);stroke:black;stroke-width:4px;"/>
            </g>
            <g transform="matrix(-0.540014,0.841656,0.841656,0.540014,342.587,-199.416)">
                <path d="M105.666,595.68C105.666,595.68 107.055,583.502 103.643,566.93C100.896,553.582 98.385,538.361 81.452,522.621C66.485,508.709 57.275,501.826 57.275,501.826C57.275,501.826 59.687,514.756 62.388,540.49C64.395,559.599 69.312,574.451 81.1,581.943C95.964,591.388 105.666,595.68 105.666,595.68Z" style="fill:rgb(0,170,81);stroke:black;stroke-width:4px;"/>
            </g>
            <g transform="matrix(0.727136,0.661417,-0.60752,0.667884,404.171,124.345)">
                <path d="M108.037,601.015C108.037,601.015 104.041,570.563 101.818,558.352C100.509,551.159 82.983,531.436 75.329,522.445C63.89,509.009 52.825,498.055 52.825,498.055C52.825,498.055 53.524,510.304 56.923,528.884C60.709,549.581 62.584,559.162 70.386,568.094C80.815,580.035 108.037,601.015 108.037,601.015Z" style="fill:rgb(0,170,81);stroke:black;stroke-width:4.24px;"/>
            </g>
            <g transform="matrix(-0.751757,0.633293,0.581688,0.690499,610.621,127.495)">
                <path d="M108.037,601.015C108.037,601.015 104.041,570.563 101.818,558.352C100.509,551.159 82.983,531.436 75.329,522.445C63.89,509.009 52.825,498.055 52.825,498.055C52.825,498.055 53.524,510.304 56.923,528.884C60.709,549.581 62.584,559.162 70.386,568.094C80.815,580.035 108.037,601.015 108.037,601.015Z" style="fill:rgb(0,170,81);stroke:black;stroke-width:4.24px;"/>
            </g>
            <g transform="matrix(0.58891,0.78701,-0.722879,0.540921,475.899,103.508)">
                <path d="M108.579,604.903C108.579,604.903 105.976,579.566 101.818,558.352C99.465,546.348 86.49,532.126 74.673,520.578C62.151,508.34 52.825,498.055 52.825,498.055C52.825,498.055 53.524,510.304 56.923,528.884C60.709,549.581 62.584,559.162 70.386,568.094C80.815,580.035 108.579,604.903 108.579,604.903Z" style="fill:rgb(0,170,81);stroke:black;stroke-width:4.24px;"/>
            </g>
            <g transform="matrix(-0.618406,0.764051,0.701791,0.568014,539.736,103.946)">
                <path d="M108.579,604.903C108.579,604.903 105.976,579.566 101.818,558.352C99.465,546.348 86.49,532.126 74.673,520.578C62.151,508.34 52.825,498.055 52.825,498.055C52.825,498.055 53.524,510.304 56.923,528.884C60.709,549.581 62.584,559.162 70.386,568.094C80.815,580.035 108.579,604.903 108.579,604.903Z" style="fill:rgb(0,170,81);stroke:black;stroke-width:4.24px;"/>
            </g>
            <g transform="matrix(0.406047,0.895168,-0.822224,0.372959,560.474,107.995)">
                <path d="M105.721,594.209C105.721,594.209 104.061,579.208 99.903,557.993C97.55,545.989 86.49,532.126 74.673,520.578C62.151,508.34 51.124,498.045 51.124,498.045C51.124,498.045 52.786,509.06 56.923,528.884C61.217,549.463 60.601,558.965 68.403,567.897C78.832,579.838 105.721,594.209 105.721,594.209Z" style="fill:rgb(0,170,81);stroke:black;stroke-width:4.24px;"/>
            </g>
            <g transform="matrix(-0.439787,0.879083,0.80745,0.40395,455.052,105.214)">
                <path d="M105.721,594.209C105.721,594.209 104.061,579.208 99.903,557.993C97.55,545.989 86.49,532.126 74.673,520.578C62.151,508.34 51.124,498.045 51.124,498.045C51.124,498.045 52.786,509.06 56.923,528.884C61.217,549.463 60.601,558.965 68.403,567.897C78.832,579.838 105.721,594.209 105.721,594.209Z" style="fill:rgb(0,170,81);stroke:black;stroke-width:4.24px;"/>
            </g>
            <g transform="matrix(0.122858,0.975246,-0.895777,0.112846,659.026,168.156)">
                <path d="M110.923,600.609C110.923,600.609 116.38,588.15 100.964,559.092C95.325,548.463 87.167,536.271 75.351,524.723C62.829,512.484 51.762,503.888 51.762,503.888C51.762,503.888 51.179,523.367 53.688,536.306C56.5,550.814 65.44,566.338 73.473,574.893C84.292,586.415 110.923,600.609 110.923,600.609Z" style="fill:rgb(0,170,81);stroke:black;stroke-width:4.24px;"/>
            </g>
            <g transform="matrix(-0.159847,0.96987,0.890839,0.146822,354.284,161.585)">
                <path d="M110.923,600.609C110.923,600.609 116.38,588.15 100.964,559.092C95.325,548.463 87.167,536.271 75.351,524.723C62.829,512.484 51.762,503.888 51.762,503.888C51.762,503.888 51.179,523.367 53.688,536.306C56.5,550.814 65.44,566.338 73.473,574.893C84.292,586.415 110.923,600.609 110.923,600.609Z" style="fill:rgb(0,170,81);stroke:black;stroke-width:4.24px;"/>
            </g>
            <g transform="matrix(0.0211325,0.982727,-0.902648,0.0194105,722.347,153.735)">
                <path d="M108.322,600.31C108.322,600.31 108.959,582.277 99.751,559.47C95.214,548.233 90.545,540.491 79.289,528.297C62.438,510.043 55.401,506 55.401,506C55.401,506 57.041,531.59 59.55,544.53C62.362,559.037 64.968,568.044 73.001,576.599C83.82,588.121 108.322,600.31 108.322,600.31Z" style="fill:rgb(0,170,81);stroke:black;stroke-width:4.24px;"/>
            </g>
            <g transform="matrix(-0.0584798,0.981213,0.901258,0.0537145,291.557,144.767)">
                <path d="M108.322,600.31C108.322,600.31 108.959,582.277 99.751,559.47C95.214,548.233 90.545,540.491 79.289,528.297C62.438,510.043 55.401,506 55.401,506C55.401,506 57.041,531.59 59.55,544.53C62.362,559.037 64.968,568.044 73.001,576.599C83.82,588.121 108.322,600.31 108.322,600.31Z" style="fill:rgb(0,170,81);stroke:black;stroke-width:4.24px;"/>
            </g>
            <g transform="matrix(-0.149072,0.970761,-0.956387,-0.146864,824.163,191.16)">
                <path d="M106.389,599.552C106.389,599.552 102.922,577.409 97.255,557.922C93.868,546.275 93.158,540.36 81.272,528.799C62.489,510.53 55.401,506 55.401,506C55.401,506 55.091,525.592 57.6,538.531C60.412,553.039 68.845,566.111 76.878,574.666C87.698,586.189 106.389,599.552 106.389,599.552Z" style="fill:rgb(0,170,81);stroke:black;stroke-width:4.1px;"/>
            </g>
            <g transform="matrix(0.112056,0.975726,0.961279,-0.110397,188.392,178.294)">
                <path d="M106.389,599.552C106.389,599.552 102.922,577.409 97.255,557.922C93.868,546.275 93.158,540.36 81.272,528.799C62.489,510.53 55.401,506 55.401,506C55.401,506 55.091,525.592 57.6,538.531C60.412,553.039 68.845,566.111 76.878,574.666C87.698,586.189 106.389,599.552 106.389,599.552Z" style="fill:rgb(0,170,81);stroke:black;stroke-width:4.1px;"/>
            </g>
            <g transform="matrix(-0.353267,0.94424,-0.954672,-0.357171,910.217,270.58)">
                <path d="M106.389,599.552C106.389,599.552 105.104,581.247 99.437,561.761C96.05,550.114 90.77,535.493 78.884,523.932C60.101,505.663 55.401,506 55.401,506C55.401,506 53.741,526.182 56.249,539.122C59.062,553.629 69.048,569.058 77.081,577.613C87.901,589.135 106.389,599.552 106.389,599.552Z" style="fill:rgb(0,170,81);stroke:black;stroke-width:3.95px;"/>
            </g>
            <g transform="matrix(0.317113,0.956988,0.967561,-0.320616,99.3809,254.385)">
                <path d="M106.389,599.552C106.389,599.552 105.104,581.247 99.437,561.761C96.05,550.114 90.77,535.493 78.884,523.932C60.101,505.663 55.401,506 55.401,506C55.401,506 53.741,526.182 56.249,539.122C59.062,553.629 69.048,569.058 77.081,577.613C87.901,589.135 106.389,599.552 106.389,599.552Z" style="fill:rgb(0,170,81);stroke:black;stroke-width:3.95px;"/>
            </g>
            <g transform="matrix(-0.257619,-0.974689,0.985458,-0.260465,-188.037,327.038)">
                <path d="M100.403,597.9C100.403,597.9 102.994,573.356 99.035,557.811C96.042,546.058 91.474,535.634 79.87,523.796C69.693,513.413 54.807,505.823 54.807,505.823C54.807,505.823 55.477,526.876 57.985,539.816C60.797,554.323 67.112,569.699 75.319,578.092C83.182,586.132 100.403,597.9 100.403,597.9Z" style="fill:rgb(0,170,81);stroke:black;stroke-width:3.95px;"/>
            </g>
            <g transform="matrix(0.29449,-0.96419,-0.974843,-0.297743,1194.69,352.557)">
                <path d="M100.403,597.9C100.403,597.9 102.994,573.356 99.035,557.811C96.042,546.058 91.474,535.634 79.87,523.796C69.693,513.413 54.807,505.823 54.807,505.823C54.807,505.823 55.477,526.876 57.985,539.816C60.797,554.323 67.112,569.699 75.319,578.092C83.182,586.132 100.403,597.9 100.403,597.9Z" style="fill:rgb(0,170,81);stroke:black;stroke-width:3.95px;"/>
            </g>
            <g transform="matrix(0.320437,-0.934543,0.829163,0.284304,-74.325,22.9492)">
                <path d="M100.403,597.9C100.403,597.9 102.994,573.356 99.035,557.811C96.042,546.058 91.474,535.634 79.87,523.796C69.693,513.413 54.807,505.823 54.807,505.823C54.807,505.823 54.39,527.245 56.899,540.184C59.711,554.691 68.426,571.217 76.633,579.609C84.496,587.65 100.403,597.9 100.403,597.9Z" style="fill:rgb(0,170,81);stroke:black;stroke-width:4.28px;"/>
            </g>
            <g transform="matrix(-0.284675,-0.94605,-0.839372,0.252574,1092.63,44.3645)">
                <path d="M100.403,597.9C100.403,597.9 102.994,573.356 99.035,557.811C96.042,546.058 91.474,535.634 79.87,523.796C69.693,513.413 54.807,505.823 54.807,505.823C54.807,505.823 54.39,527.245 56.899,540.184C59.711,554.691 68.426,571.217 76.633,579.609C84.496,587.65 100.403,597.9 100.403,597.9Z" style="fill:rgb(0,170,81);stroke:black;stroke-width:4.28px;"/>
            </g>
            <path d="M419.165,172.307C415.903,174.587 412.189,178.695 411.431,185.257C409.278,203.894 406.773,213.01 405.77,220.425C404.768,227.84 404.517,229.192 415.138,231.396C425.759,233.601 432.172,233.45 437.03,224.984C441.889,216.517 445.996,209.754 452.209,204.595C458.422,199.435 456.069,201.689 459.424,208.453C462.779,215.216 459.222,230.594 465.284,230.945C471.346,231.296 472.099,228.792 476.757,226.287C481.415,223.782 478.209,227.988 483.819,232.848C489.43,237.708 494.391,239.511 500.051,235.354C505.712,231.196 507.765,229.042 508.617,238.56C509.469,248.078 509.118,250.481 514.578,247.627C520.038,244.773 520.44,238.108 524.698,242.667C528.956,247.227 538.073,259.549 546.038,270.921C554.004,282.293 563.07,286.802 570.034,288.306C576.997,289.809 584.614,288.856 592.177,292.463C599.741,296.069 604.149,312.05 605.352,320.516C606.554,328.983 599.541,334.994 595.833,339.703C592.126,344.413 577.801,339.654 565.677,339.202C553.552,338.751 531.359,333.49 522.243,332.088C513.126,330.686 495.29,324.024 486.925,321.669C478.559,319.314 473.251,312.252 472.849,305.688C472.447,299.125 463.933,299.975 456.568,298.474C449.203,296.972 433.275,292.964 424.908,294.116C416.54,295.269 417.341,293.966 410.278,298.875C403.216,303.785 400.659,303.534 394.448,302.331C388.237,301.129 382.977,298.875 376.715,301.931C370.453,304.987 349.214,318.565 341.498,324.325C333.782,330.084 319.956,341.907 319.956,341.907C319.956,341.907 318.104,347.869 318.003,355.985C317.902,364.101 317.603,364.449 311.541,366.755C305.479,369.06 296.41,370.111 296.361,376.374C296.311,382.636 296.713,385.29 294.758,391.402C292.804,397.513 286.393,401.672 284.238,409.537C282.083,417.401 280.78,420.857 280.18,433.532C279.58,446.207 282.599,466.519 284.953,478.542C287.308,490.566 295.676,496.877 306.646,508.95C317.616,521.023 324.329,529.139 333.396,531.043C342.463,532.946 350.428,531.595 358.544,530.793C366.66,529.991 384.744,524.531 384.744,524.531C384.744,524.531 387.55,525.182 388.402,534.701C389.253,544.219 391.907,548.826 397.819,551.832C403.731,554.838 409.793,565.911 408.29,578.535C406.787,591.158 407.592,589.657 404.487,603.883C401.381,618.109 401.381,631.283 404.287,639.85C407.192,648.418 419.24,682.004 424.15,694.677C429.06,707.351 432.818,718.823 436.926,725.636C441.033,732.449 446.343,730.346 451.253,734.804C456.162,739.262 456.862,741.969 456.612,750.584C456.362,759.2 448.14,766.923 470.282,766.071C492.424,765.219 500.991,765.922 510.009,762.464C519.026,759.007 537.511,743.98 541.619,735.613C545.727,727.246 547.632,725.342 546.729,717.878C545.826,710.414 543.32,709.712 550.234,705.805C557.148,701.898 562.932,698.535 565.788,688.065C568.644,677.594 570.046,675.089 573.954,670.08C577.861,665.071 575.356,662.566 583.622,656.955C591.889,651.344 597.349,642.977 600.104,635.614C602.859,628.25 607.289,620.185 609.342,610.667C611.396,601.149 611.146,594.085 611.146,584.868C611.146,575.65 612.648,568.986 615.454,561.171C618.26,553.356 618.46,551.302 627.127,546.343C635.794,541.384 647.011,534.603 654.626,528.943C662.241,523.283 671.159,517.872 676.419,513.564C681.68,509.257 682.282,505.298 686.439,498.285C690.596,491.272 700.615,467.926 700.615,467.926C700.615,467.926 690.746,464.622 680.927,464.722C671.108,464.821 656.429,466.926 648.164,463.92C639.899,460.913 637.192,459.01 634.237,452.898C631.282,446.786 592.216,396.12 585.704,383.045C579.193,369.97 572.027,365.814 570.425,358.6C568.823,351.385 565.367,351.335 572.73,352.036C580.094,352.738 587.107,357.194 594.521,359.6C601.936,362.006 605.642,358.848 611.053,354.49C616.463,350.133 616.616,349.581 622.977,355.142C629.338,360.703 638.056,374.327 645.97,388.656C653.885,402.984 659.345,414.255 664.254,420.918C669.164,427.58 673.521,427.681 682.94,424.825C692.359,421.969 710.746,417.814 715.604,413.505C720.462,409.195 719.31,406.89 719.46,399.326C719.611,391.763 718.109,395.267 712.047,390.359C705.985,385.451 691.256,378.086 685.996,376.684C680.736,375.281 678.684,369.019 676.179,362.206C673.673,355.393 670.417,344.522 670.417,344.522C670.417,344.522 670.317,338.71 680.185,338.961C690.054,339.213 696.015,338.912 698.57,346.426C701.125,353.94 702.729,358.2 711.445,357.247C720.161,356.295 729.248,353.892 733.656,359.954C738.065,366.016 732.256,367.42 744.077,367.72C755.899,368.019 762.163,369.874 767.873,370.775C773.583,371.677 769.774,378.339 776.488,383.249C783.202,388.158 789.414,386.554 792.219,395.322C795.023,404.089 794.621,413.308 797.378,421.272C800.135,429.235 803.238,427.582 804.692,435.147C806.146,442.713 804.591,465.357 809.451,468.362C814.311,471.366 823.735,475.255 823.735,475.255C829.13,484.789 824.559,550.72 816.623,560.236C805.536,573.531 816.322,576.768 804.65,577.72C792.977,578.673 781.606,579.576 775.495,585.285C769.383,590.995 769.33,587.337 763.921,594.552C758.512,601.767 753.25,611.586 751.147,617.597C749.043,623.608 727.203,653.464 719.437,660.728C711.672,667.992 716.057,665.445 708.242,668.501C700.427,671.556 710.597,672.511 740.203,659.885C769.81,647.26 794.356,631.931 794.356,631.931L770.962,683.881L705.036,756.218C705.036,756.218 585.356,845.902 473.625,829.809C363.927,814.009 297.338,781.717 244.136,709.58C197.711,646.631 190.081,615.049 190.081,615.049C190.081,615.049 186.926,608.183 199.651,614.697C212.375,621.211 229.225,628.854 229.225,628.854C229.225,628.854 225.638,610.797 222.933,602.581C220.228,594.366 222.582,590.51 220.929,584.147C219.275,577.784 210.159,570.771 204.548,565.311C198.937,559.85 198.587,546.676 193.727,540.463C188.867,534.251 175.142,530.143 175.142,530.143L170.533,505.146C170.533,505.146 183.559,504.296 186.213,500.137C188.867,495.978 190.069,478.948 189.869,474.137C189.669,469.327 186.464,463.918 180.953,458.307C175.441,452.696 174.239,447.335 174.239,447.335L177.546,431.656C177.546,431.656 187.815,432.355 192.374,430.052C196.933,427.748 195.18,417.779 198.436,409.463C201.692,401.147 205.849,383.944 209.004,375.226C212.159,366.509 208.804,366.861 217.019,363.003C225.235,359.145 228.94,351.73 228.691,344.016C228.441,336.302 223.533,332.945 229.243,327.836C234.953,322.726 241.714,315.713 249.23,310.102C256.746,304.492 262.404,297.349 263.456,288.582C264.508,279.814 269.417,258.825 269.417,258.825C269.417,258.825 271.121,267.64 278.585,273.502C286.049,279.365 287.802,283.621 292.06,276.208C296.318,268.795 293.314,260.928 295.217,252.062C297.12,243.195 298.666,233.149 298.666,233.149C298.666,233.149 383.078,180.997 411.332,174.386C429.637,170.103 425.168,168.11 419.165,172.307ZM609.093,663.412C609.093,663.412 611.402,657.784 613.08,654.88C614.757,651.977 617.066,651.796 622.278,649.433C627.491,647.07 640.515,639.586 645.006,636.248C649.497,632.911 654.565,629.899 658.533,630.35C662.501,630.801 665.207,632.93 665.874,635.473C666.542,638.015 666.001,643.391 664.522,647.648C663.042,651.904 657.216,663.431 655.196,668.012C653.176,672.593 652.382,676.417 652.382,676.417L609.093,663.412Z" style="fill:rgb(52,42,146);stroke:black;stroke-width:8px;"/>
            <path d="M507.063,832.593C633.071,832.53 701.007,767.192 742.388,722.545C773.36,689.128 795.322,631.126 795.322,631.126C637.001,735.996 555.737,609.377 553.07,605.253C550.403,601.13 548.777,597.323 542.724,593.717C532.45,587.595 524.101,577.477 524.101,577.477C524.101,577.477 514.947,577.912 513.529,575.321C512.111,572.73 513.283,570.857 511.467,570.668C509.651,570.479 505.036,567.15 502.994,565.883C500.951,564.617 501.462,565.316 497.301,561.514C493.14,557.713 491.116,558.072 487.901,560.758C484.686,563.444 484.27,566.545 481.035,567.756C477.801,568.966 474.995,567.819 474.995,567.819L471.447,573.419L460.052,574.411L456.365,581.843C451.124,585.995 445.201,590.147 438.731,594.299L432.722,602.523C368.114,672.862 270.176,667.674 179.644,596.651C179.644,596.651 239.397,832.725 507.063,832.593Z" style="fill:white;stroke:black;stroke-width:8.5px;"/>
            <path d="M179.644,596.651C182.321,594.394 226.968,671.534 351.531,655.152C401.569,648.571 442.506,608.832 442.506,608.832C442.506,608.832 452.895,608.869 444.717,622.057C436.538,635.245 435.328,639.419 435.328,639.419C435.328,639.419 453.149,616.301 444.759,641.506C436.37,666.712 464.748,602.111 459.824,633.076C454.899,664.041 477.142,586.796 472.301,635.163C467.461,683.53 486.321,595.601 478.561,659.534C470.8,723.467 481.716,624.605 483.277,597.437C484.863,569.852 487.448,567.768 493,567.933C498.542,568.098 500.259,585.502 499.969,624.145C499.756,652.44 504.23,657.98 503.979,684.646C503.729,711.312 503.014,613.044 509.15,659.408C515.285,705.773 503.684,567.389 520,633.492C536.317,699.594 504.644,565.139 531.686,631.157C558.728,697.175 515.325,579.87 545.247,635.247C575.17,690.624 517.412,583.833 551.173,623.144C584.935,662.455 517.872,580.704 559.604,623.353C601.335,666.002 550.048,610.917 547.418,602.195C544.789,593.472 542.075,598.773 537.318,591.387C532.562,584.001 525.801,577.073 525.801,577.073L517.788,575.194C517.788,575.194 512.865,575.488 510.737,570.271C508.608,565.054 501.346,567.935 497.799,563.052C494.252,558.168 494.42,553.87 488.953,559.963C483.485,566.056 485.282,567.183 479.856,567.892C474.43,568.602 471.551,573.066 471.551,573.066L460.784,574.318L455.818,582.288C455.818,582.288 444.342,590.344 439.417,594.475C434.493,598.606 434.325,601.111 429.276,606.41C424.228,611.709 388.424,648.976 344.646,650.562C300.869,652.147 249.608,652.078 179.644,596.651Z" style="stroke:black;stroke-width:4px;"/>
            <path d="M403.131,629.553C403.131,629.553 406.01,642.649 413.172,660.694C419.087,675.598 424.02,687.447 427.918,701.456C431.815,715.465 434.447,719.748 438.099,725.927C441.751,732.107 446.981,731.509 451.546,734.809C456.111,738.11 457.024,739.831 455.9,749.977C454.776,760.124 458.64,761.562 464.572,764.968C470.505,768.374 487.567,764.442 497.188,764.933C506.808,765.425 519.307,758.507 525.872,752.574C532.437,746.642 540.618,735.056 543.217,729.86C545.815,724.663 544.725,717.221 545.744,712.34C546.763,707.46 547.887,705.95 553.574,702.263C559.261,698.577 562.982,693.347 565.791,685.306C568.6,677.265 570.075,674.036 574.569,667.611C579.063,661.185 580.115,657.357 584.47,654.549C588.824,651.741 591.247,647.248 594.055,644.439" style="fill:none;stroke:black;stroke-width:8.5px;"/>
            <path d="M596.337,747.589C588.552,745.123 579.344,739.654 580.994,730.526C582.644,721.398 582.608,718.063 585.101,710.199C587.594,702.334 587.876,697.98 594.827,692.363C601.778,686.746 604.306,682.672 605.219,675.264C606.132,667.856 607.852,666.732 610.31,660.237C612.768,653.743 612.557,653.497 619.859,650.197C627.162,646.896 636.571,641.77 643.558,637.136C650.545,632.501 656.725,629.764 661.745,630.992C666.766,632.221 666.134,640.962 662.939,649.88C659.744,658.798 650.931,677.476 645.454,688.816C639.977,700.156 627.793,714.867 624.389,723.013C620.984,731.159 617.578,735.51 610.205,741.972C602.831,748.433 605.536,750.502 596.337,747.589Z" style="fill:none;stroke:black;stroke-width:8.5px;"/>
            <path d="M234.633,705.12C234.633,705.12 356.592,721.74 448.562,601.342" style="fill:none;stroke:black;stroke-width:8.5px;"/>
            <g transform="matrix(-1,0,0,1,989.796,8.32484)">
                <path d="M234.633,705.12C234.633,705.12 356.592,721.74 448.562,601.342" style="fill:none;stroke:black;stroke-width:8.5px;"/>
            </g>
            <g transform="matrix(0.963078,-0.260993,0.26178,0.965982,-132.6,129.694)">
                <path d="M234.067,707.048C230.361,705.713 351.351,715.06 452.544,604.906" style="fill:none;stroke:black;stroke-width:8.51px;"/>
            </g>
            <g transform="matrix(-0.963078,-0.260993,-0.26178,0.965982,1118.24,135.94)">
                <path d="M234.067,707.048C230.361,705.713 366.827,717.231 435.931,611.696" style="fill:none;stroke:black;stroke-width:8.51px;"/>
            </g>
            <g transform="matrix(0.898841,-0.433267,0.434574,0.901552,-204.946,245.479)">
                <path d="M238.603,706.891C234.897,705.556 351.351,715.06 452.544,604.906" style="fill:none;stroke:black;stroke-width:8.51px;"/>
            </g>
            <g transform="matrix(-0.898841,-0.433267,-0.434574,0.901552,1182.95,245.479)">
                <path d="M234.067,707.048C230.361,705.713 342.045,716.59 443.238,606.437" style="fill:none;stroke:black;stroke-width:8.51px;"/>
            </g>
            <g transform="matrix(0.797449,-0.599759,0.601568,0.799854,-256.572,380.12)">
                <path d="M235.955,706.837C232.249,705.502 340.395,708.816 449.358,612.274" style="fill:none;stroke:black;stroke-width:8.51px;"/>
            </g>
            <g transform="matrix(-0.797449,-0.599759,-0.601568,0.799854,1234.57,380.12)">
                <path d="M235.955,706.837C232.249,705.502 336.056,708.686 445.019,612.144" style="fill:none;stroke:black;stroke-width:8.51px;"/>
            </g>
            <g transform="matrix(0.659022,-0.749217,0.751476,0.661009,-287.013,529.642)">
                <path d="M236.988,706.429C244.918,704.931 253.595,705.041 287.727,696.114C326.724,685.914 384.476,665.632 450.355,624.614" style="fill:none;stroke:black;stroke-width:8.51px;"/>
            </g>
            <g transform="matrix(-0.659022,-0.749217,-0.751476,0.661009,1265.01,529.642)">
                <path d="M230.778,706.179C227.072,704.843 315.059,715.077 436.835,629.547" style="fill:none;stroke:black;stroke-width:8.51px;"/>
            </g>
            <g transform="matrix(0.38925,-0.91876,0.921531,0.390424,-285.256,772.806)">
                <path d="M239.954,707.423C236.248,706.087 305.595,693.977 471.944,632.5" style="fill:none;stroke:black;stroke-width:8.51px;"/>
            </g>
            <g transform="matrix(1.04134,0,0,1.04134,-44.2385,-32.3544)">
                <path d="M515.576,421.857L539.574,495.716L617.234,495.716L554.406,541.363L578.404,615.222L515.576,569.575L452.748,615.222L476.746,541.363L413.918,495.716L491.578,495.716L515.576,421.857Z" style="fill:white;stroke:black;stroke-width:8.16px;"/>
            </g>
            <path d="M457.03,581.031L460.257,573.715C460.257,573.715 464.666,559.818 468.915,551.799L472.684,541.353C472.684,541.353 472.652,520.939 472.237,510.045C471.821,499.15 478.254,493.038 490.35,490.781C512.777,486.595 519.455,508.543 519.455,508.543L514.438,537.04C514.438,537.04 520.637,555.059 523.48,566.017C526.323,576.974 529.07,584.098 529.07,584.098L504.823,575.089L495.334,563.875L485.686,564.451L479.073,574.705L457.03,581.031ZM521.18,578.028C521.18,578.028 517.219,577.549 514.886,574.642C512.554,571.734 513.098,560.586 516.643,557.71C520.188,554.834 521.498,558.954 522.01,567.772C522.521,576.59 521.18,578.028 521.18,578.028ZM471.054,574.961L462.589,575.408C462.589,575.408 465.879,562.949 468.882,558.636C471.885,554.323 477.859,556.049 471.054,574.961ZM510.573,571.191L506.58,568.284C506.58,568.284 504.023,561.99 504.886,554.068C505.749,546.145 511.979,558.987 510.573,571.191ZM477.252,563.045C478.861,553.076 475.846,551.064 479.393,551.256C482.939,551.448 483.482,560.521 483.482,560.521L482.14,567.933C482.14,567.933 476.453,567.997 477.252,563.045ZM487.731,559.339L487.891,541.097C487.891,541.097 497.386,536.996 499.616,542.087C500.861,544.93 499.616,563.747 499.616,563.747C499.616,563.747 489.392,552.759 487.731,559.339Z"/>
            <g transform="matrix(-0.38925,-0.91876,-0.921531,0.390424,1263.26,772.806)">
                <path d="M238.866,706.158C235.16,704.823 299.783,698.726 468.716,628.404" style="fill:none;stroke:black;stroke-width:8.51px;"/>
            </g>
        </g>
        <g transform="matrix(4.46698,9.97985,-9.97985,4.46698,79.0114,652.955)">
            <text x="0px" y="0px" style="font-family:'Arial-Black', 'Arial Black', sans-serif;font-weight:900;font-size:12px;fill:rgb(0,170,81);">C</text>
        </g>
        <g transform="matrix(8.68189,6.64651,-6.64651,8.68189,193.095,830.066)">
            <text x="0px" y="0px" style="font-family:'Arial-Black', 'Arial Black', sans-serif;font-weight:900;font-size:12px;fill:rgb(0,170,81);">E</text>
        </g>
        <g transform="matrix(10.914,0.660886,-0.660886,10.914,414.068,945.703)">
            <text x="0px" y="0px" style="font-family:'Arial-Black', 'Arial Black', sans-serif;font-weight:900;font-size:12px;fill:rgb(0,170,81);">M</text>
        </g>
        <g transform="matrix(9.31004,-5.73363,5.73363,9.31004,691.157,911.714)">
            <text x="0px" y="0px" style="font-family:'Arial-Black', 'Arial Black', sans-serif;font-weight:900;font-size:12px;fill:rgb(0,170,81);">A</text>
        </g>
        <g transform="matrix(6.09496,-9.0776,9.0776,6.09496,852.918,780.291)">
            <text x="0px" y="0px" style="font-family:'Arial-Black', 'Arial Black', sans-serif;font-weight:900;font-size:12px;fill:rgb(0,170,81);">C</text>
        </g>
        <path d="M424.004,173.543C424.004,173.543 426.191,178.923 436.129,183.014C446.067,187.104 454.964,187.857 461.278,182.117C467.593,176.377 472.852,166.52 472.852,166.52C472.852,166.52 456.602,167.343 424.004,173.543Z" style="fill:rgb(52,42,146);stroke:black;stroke-width:8px;"/>
        <path d="M488.113,165.578C488.113,165.578 492.454,173.829 501.853,179.139C511.252,184.449 533.065,186.064 547.164,184.664C561.263,183.265 570.407,173.826 570.407,173.826C570.407,173.826 521.799,164.974 488.113,165.578Z" style="fill:rgb(52,42,146);stroke:black;stroke-width:8px;"/>
        <path d="M782.273,334.28C782.273,334.28 778.363,336.253 776.677,342.352C774.99,348.45 779.942,367.393 784.103,377.761C788.264,388.129 792.999,387.736 799.995,395.986C806.992,404.237 811.77,407.307 811.77,407.307C803.753,379.418 790.358,348.326 782.397,334.804L782.273,334.28Z" style="fill:rgb(52,42,146);stroke:black;stroke-width:8px;"/>
    </g>
</svg>
