<?xml version="1.0" encoding="UTF-8" standalone="no"?>
<!DOCTYPE svg PUBLIC "-//W3C//DTD SVG 1.1//EN" "http://www.w3.org/Graphics/SVG/1.1/DTD/svg11.dtd">
<svg width="100%" height="100%" viewBox="0 0 145 145" version="1.1" xmlns="http://www.w3.org/2000/svg" xmlns:xlink="http://www.w3.org/1999/xlink" xml:space="preserve" xmlns:serif="http://www.serif.com/" style="fill-rule:evenodd;clip-rule:evenodd;stroke-linecap:round;stroke-linejoin:round;stroke-miterlimit:1.5;">
    <g>
        <g transform="matrix(0.143439,0,0,0.143439,0.338962,1.82603)">
            <circle cx="503.078" cy="492.711" r="487.625" style="fill:white;stroke:rgb(52,42,146);stroke-width:37.4px;"/>
        </g>
        <g transform="matrix(1,0,0,1,-10,0)">
            <path d="M104.226,44.601C103.545,52.943 94.043,59.563 82.438,59.563C70.833,59.563 61.331,52.943 60.65,44.601L104.226,44.601Z" style="fill:rgb(46,127,208);"/>
        </g>
        <g transform="matrix(1,0,0,1,-10,0)">
            <path d="M60.616,43.273C60.885,34.654 70.56,27.717 82.438,27.717C94.316,27.717 103.991,34.654 104.26,43.273L60.616,43.273Z" style="fill:rgb(219,182,41);"/>
        </g>
        <g transform="matrix(-1,0,0,1,144.887,0)">
            <path d="M85.565,23.657L79.645,21.679L79.664,26.678C79.664,26.678 100.01,32.199 100.343,42.427C100.555,48.938 95.613,52.624 91.644,55.81C86.624,59.839 72.968,66.28 68.532,71.285C64.095,76.291 58.698,83.781 67,100.581C67,100.581 55.851,113.447 38.511,119.258L66.814,119.258C66.814,119.258 87.352,97.443 80.53,76.285C80.53,76.285 81.904,84.295 72.419,94.177C71.984,94.63 72.57,96.194 72.084,96.649C72.084,96.649 67.543,91.831 73.266,84.937C74.714,83.193 74.444,80.96 77.365,79.004C89.872,70.633 106.353,66.206 110.118,51.978C112.935,41.335 102.341,31.763 95.486,28.172C90.727,25.679 85.565,23.657 85.565,23.657Z" style="fill:rgb(69,172,63);"/>
        </g>
        <g transform="matrix(-1,0,0,1,142.207,0)">
            <path d="M45.669,119.417L42.93,119.417C42.93,119.417 61.562,107.645 67.531,103.058C69.829,101.291 55.196,113.862 45.669,119.417Z" style="fill:rgb(72,215,255);"/>
        </g>
        <g transform="matrix(-1,0,0,1,133.744,0)">
            <path d="M44.919,119.417L41.996,119.417C41.996,119.417 60.031,105.548 63.192,102.162C65.17,100.043 50.352,114.727 44.919,119.417Z" style="fill:rgb(72,215,255);"/>
        </g>
        <g transform="matrix(-0.665595,0,0,0.730792,112.104,32.0486)">
            <path d="M44.393,119.417L40.941,119.417C40.941,119.417 49.591,113.528 59.447,102.868C61.403,100.752 54.471,110.088 44.393,119.417Z" style="fill:rgb(72,215,255);"/>
        </g>
        <path d="M85.396,15.156L80.97,19.715L81.104,26.448C81.104,26.448 101.795,32.161 102.128,42.389C102.341,48.899 96.097,53.079 92.307,55.81C88.517,58.541 70.826,64.839 66.39,69.845C61.953,74.85 56.581,84.252 65.7,100.606C65.7,100.606 53.81,112.926 34.915,119.258L65.258,119.258C65.258,119.258 87.352,97.443 80.53,76.285C80.53,76.285 78.713,88.491 67.621,98.881C67.621,98.881 65.586,86.888 77.365,79.004C89.872,70.633 106.353,66.206 110.118,51.978C112.935,41.335 102.341,31.763 95.486,28.172C90.727,25.679 85.565,23.657 85.565,23.657L85.396,15.156Z" style="fill:rgb(72,68,182);"/>
        <path d="M45.669,119.417L42.93,119.417C42.93,119.417 56.45,112.321 64.018,105.529C66.176,103.593 55.196,113.862 45.669,119.417Z" style="fill:rgb(72,215,255);"/>
        <g transform="matrix(1,0,0,1,8.46301,0)">
            <path d="M45.669,119.417L42.93,119.417C42.93,119.417 46.855,117.287 54.606,109.883C56.703,107.881 51.102,114.727 45.669,119.417Z" style="fill:rgb(72,215,255);"/>
        </g>
        <g transform="matrix(0.665595,0,0,0.730792,30.1036,32.0486)">
            <path d="M45.669,119.417L42.93,119.417C42.93,119.417 46.855,117.287 54.606,109.883C56.703,107.881 51.102,114.727 45.669,119.417Z" style="fill:rgb(72,215,255);"/>
        </g>
    </g>
</svg>
